# xmcd
#
# Track frame offsets: 
#        150
#        94113
#        201888
#
# Disc length: 3227 seconds
#
# Revision: 0
# Processed by: cddbd v1.5.2PL0 Copyright (c) Steve Scherf et al.
# Submitted via: ExactAudioCopyFreeDBPlugin 1.0
#
DISCID=200c9903
DTITLE=杜煥 李銀嬌 - 香港文化瑰寶系列之三
DYEAR=2011
DGENRE=Country
TTITLE0=杜煥 - 兩老契嗌交
TTITLE1=杜煥 - 武松祭靈
TTITLE2=李銀嬌 - 桃花扇
EXTD=
EXTT0=
EXTT1=
EXTT2=
PLAYORDER=
